{
  "source": "C:\\Users\\Peter\\Desktop\\stuff\\MIUN\\quantitative_research\\video_compression\\videos\\BVI-HD\\BVI-HD_CDVL_videos\\ORIG\\CloudsZoom_1920x1080_60fps.mp4",
  "output": "C:\\Users\\Peter\\Desktop\\stuff\\MIUN\\quantitative_research\\video_compression\\compressed_videos\\BVI-HD\\h264\\2\\CloudsZoom_1920x1080_60fps_h264.mp4",
  "codec": "h264",
  "ok": "Input #0, mov,mp4,m4a,3gp,3g2,mj2, from 'C:\\Users\\Peter\\Desktop\\stuff\\MIUN\\quantitative_research\\video_compression\\videos\\BVI-HD\\BVI-HD_CDVL_videos\\ORIG\\CloudsZoom_1920x1080_60fps.mp4':\n  Metadata:\n    major_brand     : isom\n    minor_version   : 512\n    compatible_brands: isomiso2avc1mp41\n    encoder         : Lavf54.28.101\n  Duration: 00:00:05.00, start: 0.000000, bitrate: 32589 kb/s\n  Stream #0:0[0x1](und): Video: h264 (High 4:4:4 Predictive) (avc1 / 0x31637661), yuv420p(progressive), 1920x1080, 32586 kb/s, 60 fps, 60 tbr, 60 tbn (default)\n    Metadata:\n      handler_name    : VideoHandler\n      vendor_id       : [0][0][0][0]\n[out#0/mp4 @ 0000025d1fa59a80] Codec AVOption b:a (set bitrate (in bits/s)) has not been used for any stream. The most likely reason is either wrong type (e.g. a video option with no video streams) or that it is a private option of some decoder which was not actually used for any stream.\nStream mapping:\n  Stream #0:0 -> #0:0 (h264 (native) -> h264 (libx264))\nPress [q] to stop, [?] for help\n[libx264 @ 0000025d20290b40] using cpu capabilities: MMX2 SSE2Fast SSSE3 SSE4.2 AVX FMA3 BMI2 AVX2\n[libx264 @ 0000025d20290b40] profile High, level 5.0, 4:2:0, 8-bit\n[libx264 @ 0000025d20290b40] 264 - core 165 r3222 b35605a - H.264/MPEG-4 AVC codec - Copyleft 2003-2025 - http://www.videolan.org/x264.html - options: cabac=1 ref=5 deblock=1:0:0 analyse=0x3:0x113 me=hex subme=8 psy=1 psy_rd=1.00:0.00 mixed_ref=1 me_range=16 chroma_me=1 trellis=2 8x8dct=1 cqm=0 deadzone=21,11 fast_pskip=1 chroma_qp_offset=-2 threads=18 lookahead_threads=3 sliced_threads=0 nr=0 decimate=1 interlaced=0 bluray_compat=0 constrained_intra=0 bframes=3 b_pyramid=2 b_adapt=1 b_bias=0 direct=3 weightb=1 open_gop=0 weightp=2 keyint=250 keyint_min=25 scenecut=40 intra_refresh=0 rc_lookahead=50 rc=cbr mbtree=1 bitrate=2000 ratetol=1.0 qcomp=0.60 qpmin=0 qpmax=69 qpstep=4 vbv_maxrate=2000 vbv_bufsize=2000 nal_hrd=none filler=0 ip_ratio=1.40 aq=1:1.00\nOutput #0, mp4, to 'C:\\Users\\Peter\\Desktop\\stuff\\MIUN\\quantitative_research\\video_compression\\compressed_videos\\BVI-HD\\h264\\2\\CloudsZoom_1920x1080_60fps_h264.mp4':\n  Metadata:\n    major_brand     : isom\n    minor_version   : 512\n    compatible_brands: isomiso2avc1mp41\n    encoder         : Lavf62.3.100\n  Stream #0:0(und): Video: h264 (avc1 / 0x31637661), yuv420p(tv, progressive), 1920x1080, q=2-31, 2000 kb/s, 60 fps, 15360 tbn (default)\n    Metadata:\n      encoder         : Lavc62.11.100 libx264\n      handler_name    : VideoHandler\n      vendor_id       : [0][0][0][0]\n    Side data:\n      cpb: bitrate max/min/avg: 2000000/0/2000000 buffer size: 2000000 vbv_delay: N/A\nframe=    0 fps=0.0 q=0.0 size=       0KiB time=N/A bitrate=N/A speed=N/A elapsed=0:00:00.51    \nframe=   49 fps= 47 q=29.0 size=       0KiB time=00:00:00.76 bitrate=   0.5kbits/s speed=0.736x elapsed=0:00:01.04    \nframe=  106 fps= 67 q=30.0 size=     256KiB time=00:00:01.68 bitrate=1246.1kbits/s speed=1.07x elapsed=0:00:01.57    \nframe=  152 fps= 71 q=29.0 size=     512KiB time=00:00:02.48 bitrate=1689.1kbits/s speed=1.16x elapsed=0:00:02.14    \nframe=  212 fps= 79 q=30.0 size=     768KiB time=00:00:03.46 bitrate=1815.0kbits/s speed=1.29x elapsed=0:00:02.69    \nframe=  272 fps= 84 q=28.0 size=    1024KiB time=00:00:04.48 bitrate=1871.2kbits/s speed=1.39x elapsed=0:00:03.23    \n[mp4 @ 0000025d1fa61180] Starting second pass: moving the moov atom to the beginning of the file\n[out#0/mp4 @ 0000025d1fa59a80] video:1144KiB audio:0KiB subtitle:0KiB other streams:0KiB global headers:0KiB muxing overhead: 0.381668%\nframe=  300 fps= 87 q=-1.0 Lsize=    1148KiB time=00:00:04.96 bitrate=1894.1kbits/s speed=1.45x elapsed=0:00:03.42    \n[libx264 @ 0000025d20290b40] frame I:2     Avg QP:17.55  size: 22498\n[libx264 @ 0000025d20290b40] frame P:76    Avg QP:19.12  size:  6989\n[libx264 @ 0000025d20290b40] frame B:222   Avg QP:18.14  size:  2678\n[libx264 @ 0000025d20290b40] consecutive B-frames:  1.3%  0.0%  0.0% 98.7%\n[libx264 @ 0000025d20290b40] mb I  I16..4: 12.8% 87.2%  0.1%\n[libx264 @ 0000025d20290b40] mb P  I16..4:  1.8% 13.6%  0.0%  P16..4: 23.8%  2.6%  1.0%  0.0%  0.0%    skip:57.2%\n[libx264 @ 0000025d20290b40] mb B  I16..4:  0.3%  0.6%  0.0%  B16..8: 20.3%  1.1%  0.0%  direct: 3.7%  skip:74.0%  L0:62.2% L1:37.7% BI: 0.1%\n[libx264 @ 0000025d20290b40] 8x8 transform intra:85.7% inter:99.9%\n[libx264 @ 0000025d20290b40] direct mvs  spatial:95.5% temporal:4.5%\n[libx264 @ 0000025d20290b40] coded y,uvDC,uvAC intra: 15.7% 15.5% 0.4% inter: 0.4% 6.1% 0.0%\n[libx264 @ 0000025d20290b40] i16 v,h,dc,p: 33% 24% 36%  7%\n[libx264 @ 0000025d20290b40] i8 v,h,dc,ddl,ddr,vr,hd,vl,hu: 13%  7% 77%  0%  0%  0%  0%  0%  0%\n[libx264 @ 0000025d20290b40] i4 v,h,dc,ddl,ddr,vr,hd,vl,hu: 16% 22%  6%  5% 18% 10%  7%  3% 13%\n[libx264 @ 0000025d20290b40] i8c dc,h,v,p: 75% 15%  9%  1%\n[libx264 @ 0000025d20290b40] Weighted P-Frames: Y:0.0% UV:0.0%\n[libx264 @ 0000025d20290b40] ref P L0: 49.4%  1.4% 29.5% 11.5%  8.3%\n[libx264 @ 0000025d20290b40] ref B L0: 60.5% 28.4%  8.6%  2.5%\n[libx264 @ 0000025d20290b40] ref B L1: 85.9% 14.1%\n[libx264 @ 0000025d20290b40] kb/s:1873.08\n",
  "seconds": 3.6386091709136963,
  "probe_out": {}
}